<mxfile host="65bd71144e">
    <diagram id="uI8xrb4BueAlXMZJVAG4" name="Page-1">
        <mxGraphModel dx="502" dy="619" grid="1" gridSize="10" guides="1" tooltips="1" connect="1" arrows="1" fold="1" page="1" pageScale="1" pageWidth="850" pageHeight="1100" math="0" shadow="0">
            <root>
                <mxCell id="0"/>
                <mxCell id="1" parent="0"/>
                <mxCell id="5" value="" style="group" parent="1" vertex="1" connectable="0">
                    <mxGeometry x="50" y="90" width="610" height="470" as="geometry"/>
                </mxCell>
                <mxCell id="3" value="" style="rounded=1;whiteSpace=wrap;html=1;align=center;" parent="5" vertex="1">
                    <mxGeometry width="610" height="460" as="geometry"/>
                </mxCell>
                <mxCell id="4" value="Main Panel" style="text;html=1;strokeColor=none;fillColor=none;align=center;verticalAlign=middle;whiteSpace=wrap;rounded=0;" parent="5" vertex="1">
                    <mxGeometry x="433.42105263157896" y="28.75" width="128.42105263157893" height="43.125" as="geometry"/>
                </mxCell>
                <mxCell id="17" value="" style="group" parent="5" vertex="1" connectable="0">
                    <mxGeometry x="142.99677966101692" y="140" width="464.0859322033898" height="160" as="geometry"/>
                </mxCell>
                <mxCell id="13" value="" style="rounded=1;whiteSpace=wrap;html=1;" parent="17" vertex="1">
                    <mxGeometry width="464.08593220338975" height="150" as="geometry"/>
                </mxCell>
                <mxCell id="40" value="" style="group" parent="17" vertex="1" connectable="0">
                    <mxGeometry x="14.06101694915254" y="10" width="446.0237288135593" height="130" as="geometry"/>
                </mxCell>
                <mxCell id="16" value="TableRoutes" style="text;html=1;strokeColor=none;fillColor=none;align=center;verticalAlign=middle;whiteSpace=wrap;rounded=0;" parent="40" vertex="1">
                    <mxGeometry x="323.45602465331274" width="112.50568053415509" height="30" as="geometry"/>
                </mxCell>
                <mxCell id="18" value="RouteSettingTable&lt;br&gt;" style="rounded=1;whiteSpace=wrap;html=1;" parent="40" vertex="1">
                    <mxGeometry y="50" width="110.00677966101694" height="80" as="geometry"/>
                </mxCell>
                <mxCell id="19" value="PositionSetterBar" style="rounded=1;whiteSpace=wrap;html=1;" parent="40" vertex="1">
                    <mxGeometry x="120.34576271186438" y="50" width="103.38983050847457" height="80" as="geometry"/>
                </mxCell>
                <mxCell id="37" value="OperationButtons" style="rounded=1;whiteSpace=wrap;html=1;" parent="40" vertex="1">
                    <mxGeometry x="239.24406779661015" y="50" width="98.22033898305084" height="80" as="geometry"/>
                </mxCell>
                <mxCell id="8" value="" style="group" parent="5" vertex="1" connectable="0">
                    <mxGeometry x="10" y="150" width="120" height="200" as="geometry"/>
                </mxCell>
                <mxCell id="6" value="" style="rounded=1;whiteSpace=wrap;html=1;" parent="8" vertex="1">
                    <mxGeometry width="119.99823534025268" height="199.99999999999997" as="geometry"/>
                </mxCell>
                <mxCell id="7" value="TableHolds" style="text;html=1;strokeColor=none;fillColor=none;align=center;verticalAlign=middle;whiteSpace=wrap;rounded=0;" parent="8" vertex="1">
                    <mxGeometry x="51.42781514582258" y="13.333333333333332" width="59.99911767012634" height="40" as="geometry"/>
                </mxCell>
                <mxCell id="39" value="Player" style="rounded=1;whiteSpace=wrap;html=1;" parent="8" vertex="1">
                    <mxGeometry x="3.185519594258843" y="110" width="113.62448040574114" height="80" as="geometry"/>
                </mxCell>
            </root>
        </mxGraphModel>
    </diagram>
</mxfile>